<?xml version="1.0" encoding="utf-8"?>
<!-- Generator: Adobe Illustrator 16.0.0, SVG Export Plug-In . SVG Version: 6.00 Build 0)  -->
<!DOCTYPE svg PUBLIC "-//W3C//DTD SVG 1.1//EN" "http://www.w3.org/Graphics/SVG/1.1/DTD/svg11.dtd">
<svg version="1.1" id="Layer_1" xmlns:scal="http://www.craftedge.com/namespaces/surecutsalot" scal:dpi="72"
	 xmlns="http://www.w3.org/2000/svg" xmlns:xlink="http://www.w3.org/1999/xlink" x="0px" y="0px" width="1699.886px"
	 height="922.731px" viewBox="14.058 240.635 1699.886 922.731" enable-background="new 14.058 240.635 1699.886 922.731"
	 xml:space="preserve">
<path id="jRiA7jLcL.jpeg" stroke="#000000" d="M850.549,251.272c-2.882,7.577-7.129,79.418-9.441,159.648L836.9,556.796
	l-25.66,6.463c-35.062,8.828-67.543,25.802-98.279,51.349l-25.824,21.47l-90.708,4.218c-95.902,4.457-116.287,8.43-116.287,22.653
	c0,11.869,14.798,17.593,87.194,33.726c33.891,7.555,62.751,14.865,64.138,16.252c1.388,1.387-2.302,20.129-8.196,41.65
	l-10.722,39.132l-289.329,1.376c-286.975,1.364-289.408,1.479-299.276,13.421c-12.523,15.16-12.523,23.426,0,38.74
	c8.316,10.169,24.864,14.449,100.9,26.103c143.465,21.982,127.901,16.49,127.901,45.169c0,23.841-1.023,25.308-25.955,37.382
	c-38.973,18.866-56.47,48.752-56.47,96.451c0,31.7,2.518,41.58,15.638,61.41c46.465,70.221,150.957,63.96,188.452-11.279
	c8.117-16.291,14.763-38.16,14.763-48.591c0-41.729-30.304-85.952-71.067-103.705c-20.401-8.885-22.675-11.897-22.084-29.189
	c0.574-16.735,2.456-19.111,14.223-17.991c20.816,1.984,314.192,47.278,315.142,48.653c0.46,0.665,9.487,17.838,20.061,38.16
	c26.422,50.782,74.638,98.163,122.871,120.753c32.475,15.199,46.981,18.47,90.655,20.38c116.543,5.12,192.781-48.49,255.842-179.901
	c0.479-1.001,66.99-11.881,147.8-24.176c80.8-12.296,152.68-23.676,159.71-25.29c11.59-2.661,12.79-0.847,12.79,19.469
	c0,20.612-1.61,22.938-20.12,29.048c-27.75,9.157-56.68,40.729-65.2,71.16c-20.43,72.971,30.181,140.96,105.21,141.33
	c60.68,0.311,111.16-50.99,110.73-112.52c-0.271-37.42-34.38-86.271-69.51-99.544c-13.83-5.225-15.641-8.828-15.641-31.175
	c0-29.621-11.8-25.283,123.98-45.589c51-7.629,96.399-16.923,100.899-20.657c9.931-8.237,10.811-40.298,1.37-49.739
	c-5.12-5.122-77.689-6.821-291.609-6.821h-284.791l-12.109-41.139c-6.66-22.624-11.5-41.747-10.76-42.497
	c0.75-0.751,31.58-7.896,68.51-15.877c73.64-15.922,88.5-21.698,88.5-34.414c0-14.029-21.62-18.146-118.42-22.528l-92.45-4.188
	l-26.729-22.142c-31.119-25.778-64.947-43.202-102.397-52.741l-26.643-6.78L884.9,403.957
	c-9.346-107.71-15.32-152.572-21.084-158.37C856.87,238.595,855.062,239.368,850.549,251.272z M866.688,790.161v39.092
	l-54.339,6.839c-29.889,3.764-71.42,11.573-92.293,17.366c-20.874,5.786-38.779,9.697-39.786,8.686
	c-1.012-1.012,2.285-11.704,7.327-23.767c10.772-25.791,33.017-50.564,56.879-63.348c20.459-10.96,71.421-22.818,100.9-23.478
	l21.317-0.478L866.688,790.161z M958.781,757.373c60.318,12.614,105.049,48.396,115.889,92.691
	c3.58,14.672,2.811,16.087-6.75,12.381c-22.15-8.584-103.051-25.279-140.125-28.93l-38.37-3.768v-39.337v-39.337h19.617
	C919.831,751.074,942.211,753.911,958.781,757.373z M315.178,977.038c10.88,5.469,25.813,18.89,33.192,29.832
	c18.281,27.13,15.746,77.72-5.008,99.94c-22.107,23.659-43.839,32.369-73.62,29.51c-33.266-3.2-53.156-17.32-68.737-48.811
	C165.937,1016.64,243.889,941.215,315.178,977.038z M1502.58,982.683c35.63,26.558,47.98,83.367,24.91,114.537
	c-21.801,29.431-46.78,41.641-79.75,39c-89.11-7.149-106.92-128.31-23.971-163.069
	C1444.061,964.646,1485.03,969.604,1502.58,982.683z M239.608,1009.23c-39.586,36.689-16.911,99.959,35.83,99.959
	c29.298,0,48.898-12.699,56.867-36.84c8.283-25.1,2.429-45.399-18.076-62.649C291.587,990.646,259.868,990.448,239.608,1009.23z
	 M1424.39,1003.44c-27.26,15.109-35.859,47.659-20.46,77.449c10.67,20.63,24.521,28.311,51.101,28.311s40.43-7.681,51.1-28.311
	c10.83-20.93,10.79-30.71-0.21-53.89C1491.96,997.582,1454.5,986.753,1424.39,1003.44z"/>
</svg>
